<svg width="512" height="512" xmlns="http://www.w3.org/2000/svg">

 <g>
  <title>background</title>
  <rect fill="none" id="canvas_background" height="402" width="582" y="-1" x="-1"/>
 </g>
 <g>
  <title>Layer 1</title>
  <path fill="#01016d" id="svg_2" d="m488.5,256c0,128.4 -104.1,232.5 -232.5,232.5c-128.4,0 -232.5,-104.1 -232.5,-232.5c0,-128.4 104.1,-232.5 232.5,-232.5c128.4,0 232.5,104.1 232.5,232.5z" class="st0"/>
  <path fill="#ffffff" id="svg_4" d="m346,279c-1.9,0 -3.5,-1.3 -3.9,-3.2l-11.8,-55.1l-20.4,65c-0.6,1.8 -2.3,2.9 -4.2,2.8c-1.9,-0.2 -3.4,-1.6 -3.6,-3.5l-11.8,-86.8l-17.8,147.6c-0.2,2 -1.9,3.5 -3.9,3.5l0,0c-2,0 -3.7,-1.5 -4,-3.5l-14.8,-115.3l-14.7,67.7c-0.4,1.8 -2,3.1 -3.8,3.1c-2,0 -3.5,-1.3 -4,-3.1l-22.8,-96.8l-16.4,73.6c-0.4,1.8 -2,3.1 -3.9,3.1l-35.5,0c11.1,11.8 24.7,23.9 40.9,36.6c35.2,27.5 56.3,55.2 66.3,70.2c10.1,-15 31.2,-42.7 66.4,-70.2c15.8,-12.4 29.1,-24.2 40.1,-35.7l-16.4,0z" class="st1"/>
  <path fill="#ffffff" id="svg_5" d="m181,270.1l19.5,-87.2c0.4,-1.8 2,-3.1 3.9,-3.1c2,0 3.5,1.3 3.9,3.1l22.7,96.5l16,-73.1c0.4,-1.9 2,-3.2 4.1,-3.2c1.9,0.1 3.5,1.6 3.8,3.5l13.7,106.4l17.6,-146.7c0.3,-2 1.9,-3.5 3.9,-3.5l0,0c2,0 3.7,1.5 4,3.5l13.6,100l19.6,-62.4c0.6,-1.7 2.2,-2.9 4,-2.8c1.8,0.1 3.3,1.4 3.7,3.2l14.3,66.8l20.5,0c21.3,-24.5 31.5,-47.5 31.5,-70.3c0,-54.3 -35,-73.6 -65.1,-73.6c-27.9,0 -54.4,15.3 -70.7,40.9l-0.2,0.2l-0.2,0.2c-2,2.7 -5.2,4.3 -8.7,4.5l-0.4,0l-0.3,0c-3.5,-0.2 -6.7,-1.8 -8.7,-4.4l-0.3,-0.3l-0.2,-0.3c-16.3,-25.6 -42.8,-40.9 -70.7,-40.9c-30,0 -65.1,19.3 -65.1,73.6c0,22.5 10,45.2 30.8,69.4l39.5,0z" class="st1"/>
  <line stroke-linecap="null" stroke-linejoin="null" id="svg_6" y2="87.461954" x2="313.128031" y1="88.289896" x1="128.496859" stroke-opacity="null" stroke-width="null" stroke="null" fill="none"/>
 </g>
</svg>