<svg width="512" height="512" xmlns="http://www.w3.org/2000/svg">

 <g>
  <title>background</title>
  <rect fill="none" id="canvas_background" height="402" width="582" y="-1" x="-1"/>
 </g>
 <g>
  <title>Layer 1</title>
  <path fill="#020e6b" id="svg_2" d="m488.5,256c0,128.4 -104.1,232.5 -232.5,232.5s-232.5,-104.1 -232.5,-232.5c0,-128.4 104.1,-232.5 232.5,-232.5s232.5,104.1 232.5,232.5z" class="st0"/>
  <path fill="#ffffff" id="svg_4" d="m380.5,254.8c0,-27.4 -10.3,-53.5 -29,-73.5l11.2,-11.7l-18.8,-18l3.8,-3.9l18.8,18c12.4,-13 12,-33.5 -1,-45.9c-12.9,-12.4 -33.5,-12 -45.9,1l18.7,17.9l-3.8,3.9l-18.7,-17.9l-65.8,68.6l18.6,17.8l-4,4.1l-12.8,-12.2l-13.3,13.9l17.6,16.9l4.5,4.3l0,0l13.1,12.6l13.3,-13.9l-13,-12.5l4,-4.1l18.9,18.1l40.8,-42.6c14.8,16.2 22.9,37.1 22.9,59.1c0,31.9 -17.3,61.2 -45.1,76.7c-4.9,-4.1 -11.2,-6.6 -17.9,-6.6c-16.2,0 -29.3,14 -29.3,31.2l0,26c0,0.4 0,0.7 0,1l-37.3,0l0,-65l64.2,0l0,-10.4l-5.8,0l0,-3.6l-139.5,0l0,3.6l-5.9,0l0,10.4l64.2,0l0,65l-76.7,0l0,18.2l206.8,0l0,-18.2l-11.5,0c0,-0.3 0,-0.7 0,-1l0,-26c0,-2.7 -0.4,-5.3 -0.9,-7.7c33.7,-19.2 54.6,-54.9 54.6,-93.6z" class="st1"/>
 </g>
</svg>