<svg width="512" height="512" xmlns="http://www.w3.org/2000/svg">

 <g>
  <title>background</title>
  <rect fill="none" id="canvas_background" height="402" width="582" y="-1" x="-1"/>
 </g>
 <g>
  <title>Layer 1</title>
  <path fill="#021368" id="svg_2" d="m488.5,256c0,128.4 -104.1,232.5 -232.5,232.5s-232.5,-104.1 -232.5,-232.5c0,-128.4 104.1,-232.5 232.5,-232.5s232.5,104.1 232.5,232.5z" class="st0"/>
  <path fill="#ffffff" id="svg_3" d="m277,280.1l0,-6.3l0,-6.4l0,-4.9c26,-8.8 44.8,-33.3 44.8,-62.3c0,-4.5 -0.6,-8.8 -1.5,-13.1l6,0l0,-8.9l-2.3,0l0,-51.4c0,-8.8 -7.2,-16.1 -16.1,-16.1l-103.9,0c-8.8,0 -16.1,7.2 -16.1,16.1l0,51.4l-2.2,0l0,8.9l6,0c-0.9,4.2 -1.5,8.6 -1.5,13.1c0,29 18.8,53.5 44.8,62.3l0,5l0,6.4l0,6.3c-75.2,6.2 -120.7,47 -120.7,121.3l283.3,0c0.1,-72.2 -45.4,-114.8 -120.6,-121.4zm-45.7,-140.9l17.2,0l0,-17.2l15,0l0,17.2l17.2,0l0,15l-17.2,0l0,17.2l-15,0l0,-17.2l-17.2,0l0,-15z" class="st1"/>
 </g>
</svg>